<svg viewBox="0 0 905 160" xmlns="http://www.w3.org/2000/svg"><defs><linearGradient id="gradient" x1="0" y1="0" x2="1" y2="0" gradientUnits="userSpaceOnUse" gradientTransform="scale(936) rotate(345)"><stop offset="0" stop-color="#e9606a"/><stop offset="1" stop-color="#8d85b6"/></linearGradient></defs><g fill="url(#gradient)"><path d="M52.62 69.229c9.895-2.078 25.532-9.098 25.532-32.708 0-24.098-30.475-24.098-30.475-24.098H.29C6.197 19.288 6.517 29.5 6.517 30.934v77.229c0 1.433-.32 11.646-6.227 18.511h34.148c-6.065-7.979-6.065-18.667-6.065-18.667V69.549c5.269 8.522 32.39 51.699 39.091 55.849 3.103 1.935 8.23 2.511 13.22 2.511 7.328 0 14.381-1.242 14.381-1.242-13.722-9.254-36.38-47.063-42.445-57.438zM35.387 63.64h-7.021V23.6h7.021s22.021 0 22.021 16.588c0 23.134-22.021 23.452-22.021 23.452z"/><path d="M137.267 117.401c-8.949 0-16.078-.889-22.23-14.089-.795-1.752-.767-2.683-.767-2.683l36.857-45.473s-7.185-11.972-25.851-11.972c-24.01 0-34.622 17.581-34.622 41.807 0 30.475 13.723 44.354 34.459 44.354 18.354 0 26.014-11.972 27.446-13.723-4.937.923-10.239 1.779-15.292 1.779zm-31.886-53.206c.307-6.411 1.786-9.698 7.477-9.358 13.81.828 22.448 4.854 14.13 17.572-2.75 4.204-14.626 21.994-14.626 21.994 0-.211-6.981-18.578-6.981-30.21v.002z"/><path d="M249.899 127.23h29.679c-5.589-10.851-6.063-17.076-6.063-18.992l-.157-44.516c0-7.978-.482-21.376-18.829-21.376-12.602 0-25.85 13.724-27.764 15.795-.795-7.496-4.305-15.795-18.51-15.795-12.128 0-24.736 11.966-27.765 15.32v-15.32s-24.892 11.328-24.892 11.484c6.227 5.581 6.227 14.679 6.227 14.679v39.729c0 2.234-.32 11.808-6.227 18.992h31.594c-6.063-9.737-6.227-18.51-6.227-19.467l-.318-45.473c5.261-2.227 9.737-3.191 13.24-3.191 15.637 0 15.637 12.922 15.637 12.922v35.742c0 .646-.318 4.949-6.063 19.467h29.679c-5.581-10.851-6.063-17.076-6.063-18.992l-.156-45.785c4.705-1.955 9.512-2.913 14.429-2.88 14.299 0 14.612 12.495 14.612 15.964v32.226c0 .638-.319 4.943-6.063 19.467z"/><path d="M351.433 105.468V68.544c0-3.11-.298-15.393-22.976-24.248-12.128-4.739-25.668-3.299-35.099 5.886l8.142 19.951c4.623-9.574 14.042-17.553 23.928-17.553 5.059 0 6.206 13.335 5.907 16.913-10.85 5.263-29.197 14.362-43.402 21.696-3.707 1.968-5.235 5.086-5.235 8.684 0 11.611 15.834 28.336 25.817 28.336 9.09 0 20.58-11.49 23.771-14.844v2.872c0 9.256 7.177 11.007 7.177 11.007l17.871-7.652c-5.635-4.482-5.901-12.651-5.901-14.124zm-33.324 4.883c-2.472 0-4.87-.197-6.885-.653-3.946-.923-7.096-5.737-7.096-10.878 0-3.808 1.725-7.789 6.138-10.511 13.404-8.134 18.822-11.482 21.218-12.922l.802 32.709c-3.055 1.323-8.806 2.255-14.177 2.255z"/><path d="M412.628 42.184c-12.765 0-22.815 10.532-26.169 14.517V41.866l-25.205 11.482c5.84 4.867 6.22 14.679 6.22 14.679l.007 40.069c0 2.281-.368 11.842-6.227 18.965h31.588c-6.078-9.731-6.227-18.578-6.227-19.4l-.156-45.541c3.918-1.745 7.285-2.424 10.158-2.424 10.206 0 14.096 8.651 14.096 8.651l16.119-20.106c-.006.006-3.517-6.057-14.204-6.057z"/><path d="M469.971 70.587c11.326-10.85 17.397-12.766 32.708-25.049H473c1.866 2.67 4.495 9.554 1.596 12.447-9.575 9.248-18.347 15.474-21.702 17.872V.697l-24.892 11.488c6.22 5.583 6.22 14.681 6.22 14.681l.007 81.392c0 2.283-.368 11.842-6.227 18.965h31.588c-6.078-9.73-6.227-18.578-6.227-19.4 0-7.258-.102-14.509-.156-21.761 5.587 10.688 19.629 35.58 26.012 39.409 3.905 2.357 9.561 3.036 14.809 3.036 7.191 0 13.594-1.277 13.594-1.277-19.14-12.765-37.651-56.643-37.651-56.643z"/><path d="M571.685 105.468V68.544c0-3.11-.298-15.393-22.976-24.248-12.128-4.739-25.668-3.299-35.099 5.886l8.142 19.951c4.623-9.574 14.042-17.553 23.928-17.553 5.059 0 6.206 13.335 5.907 16.913-10.85 5.263-29.197 14.362-43.402 21.696-3.707 1.968-5.235 5.086-5.235 8.684 0 11.611 15.834 28.336 25.817 28.336 9.09 0 20.58-11.49 23.771-14.844v2.872c0 9.256 7.177 11.007 7.177 11.007l17.871-7.652c-5.635-4.482-5.901-12.651-5.901-14.124zm-33.324 4.883c-2.472 0-4.87-.197-6.885-.653-3.946-.923-7.096-5.737-7.096-10.878 0-3.808 1.725-7.789 6.138-10.511 13.404-8.134 18.822-11.482 21.218-12.922l.802 32.709c-3.055 1.323-8.806 2.255-14.177 2.255z"/><path d="M632.49 43.142c-9.892 0-25.048 12.126-28.239 14.843V1.023l-25.205 11.482c6.22 5.581 6.22 14.844 6.22 14.844v100.356s7.815-3.027 14.524-5.901c9.41 4.952 17.551 7.185 24.73 7.185 21.218 0 32.232-19.467 32.232-44.204-.006-19.147-8.149-41.643-24.262-41.643zm-2.389 73.401c-8.461 6.464-22.436 2.009-25.05-8.46-.718-2.874-.807-5.813-.807-6.437 0-13.33.007-25.368.007-38.711 2.553-1.276 8.297-2.709 14.042-2.709 5.105 0 10.212 1.276 13.083 4.787 3.192 4.141 4.952 14.673 4.952 25.367-.009 11.475-2.078 22.801-6.227 26.163z"/><path d="M674.561 35.957l14.999-16.111s-9.092-4.632-14.679-15.157l-15.475 14.843c0-.006 4.943 10.688 15.155 16.425zm16.915 91.273c-6.085-9.731-6.227-18.577-6.227-19.398l-.156-64.684-25.212 11.489c6.226 5.107 6.226 14.674 6.226 14.674l.008 38.955c0 2.281-.367 11.841-6.227 18.964h31.588z"/><path d="M695.486 127.23h31.594c-6.376-10.205-6.702-17.742-6.702-19.467V.697s-24.892 11.257-24.892 11.488c6.227 5.583 6.227 14.681 6.227 14.681v80.89c0 2.798-.149 12.1-6.227 19.474z"/><path d="M745.901 35.957L760.9 19.846s-9.092-4.632-14.679-15.157l-15.475 14.843c0-.006 4.943 10.688 15.155 16.425zm16.915 91.273c-6.085-9.731-6.227-18.577-6.227-19.398l-.156-64.684-25.212 11.489c6.226 5.107 6.226 14.674 6.226 14.674l.008 38.955c0 2.281-.367 11.841-6.227 18.964h31.588z"/><path d="M791.001 108.72V53.674h16.119l3.028-8.136h-19.467V26.227l-26.807 27.447h7.978s-1.773 47.048-1.922 54.395c-.156 7.387 5.148 21.396 22.027 21.396 22.66 0 29.041-13.086 29.041-13.086-4.407 1.752-29.997 5.324-29.997-7.659z"/><path d="M875.031 45.535c5.371 6.54 9.465 9.961 7.021 18.348l-15.523 42.607s-12.208-38.114-14.361-44.842c-2.152-6.729-1.54-11.244 3.674-16.113h-38.458c5.261 5.426 9.566 12.487 12.601 20.744 3.036 8.257 22.103 60.642 22.103 60.642 0 4.645-4.496 22.972-15.164 22.972-7.977 0-12.37-12.922-12.37-12.922l-17.22 16.581s4.902 5.751 19.189 5.751c14.28 0 31.736-13.607 39.369-32.077 7.639-18.468 26.372-63.507 26.372-63.507 3.348-8.446 7.341-13.077 12.446-18.184h-29.679z"/></g></svg>